# xmcd
#
# Track frame offsets: 
#        150
#        15681
#        35324
#        56799
#        75135
#        101053
#        125902
#        149658
#        176875
#        195756
#        212348
#
# Disc length: 3155 seconds
#
# Revision: 0
# Processed by: cddbd v1.5.2PL0 Copyright (c) Steve Scherf et al.
# Submitted via: ExactAudioCopyFreeDBPlugin 1.0
#
DISCID=930c510b
DTITLE=Cyril Neville - Endangered Species The Essential Recordings 
DYEAR=2018
DGENRE=R&B
TTITLE0=Love Has Got to Win
TTITLE1=Cyril Neville feat The Uptown All-Stars - Ayiti
TTITLE2=Cyril Neville feat The Uptown All-Stars - Second Line Soca
TTITLE3=New Orleans Cookin'
TTITLE4=Funkaliscious
TTITLE5=Calling All Souls
TTITLE6=Cyril Neville feat The Uptown All-Stars - More Professor Longh
TTITLE6=air
TTITLE7=Cyril Neville feat Damien Neville - Running with the Second Li
TTITLE7=ne 
TTITLE8=Cyril Neville feat Gaynielle Neville, Dane Wilson and Yadonna Wi
TTITLE8=se - Lift Every Voice and Sing
TTITLE9=The Road to Unity
TTITLE10=Can't Stop a Dreamer
EXTD=
EXTT0=
EXTT1=
EXTT2=
EXTT3=
EXTT4=
EXTT5=
EXTT6=
EXTT7=
EXTT8=
EXTT9=
EXTT10=
PLAYORDER=
